{
  "accessors": [
    {
      "bufferView": 2,
      "componentType": 5126,
      "count": 65532,
      "max": [
        0.2497711479663849,
        0.11046599596738815,
        0.6183929443359375
      ],
      "min": [
        0.07444767653942108,
        -0.4610748887062073,
        0.22802734375
      ],
      "type": "VEC3"
    },
    {
      "bufferView": 2,
      "byteOffset": 786384,
      "componentType": 5126,
      "count": 65532,
      "max": [
        1.0,
        0.9999381899833679,
        0.9979895949363708
      ],
      "min": [
        -0.9999690651893616,
        -0.9998462200164795,
        -0.9999691843986511
      ],
      "type": "VEC3"
    },
    {
      "bufferView": 3,
      "componentType": 5126,
      "count": 65532,
      "max": [
        0.999191403388977,
        0.9999951124191284,
        0.9980136752128601,
        1.0
      ],
      "min": [
        -1.0,
        -0.999912679195404,
        -0.9999971985816956,
        -1.0
      ],
      "type": "VEC4"
    },
    {
      "bufferView": 1,
      "componentType": 5126,
      "count": 65532,
      "max": [
        0.99755859375,
        0.994873046875
      ],
      "min": [
        0.001220703125,
        0.01123046875
      ],
      "type": "VEC2"
    },
    {
      "bufferView": 1,
      "byteOffset": 524256,
      "componentType": 5126,
      "count": 65532,
      "max": [
        0.99755859375,
        0.994873046875
      ],
      "min": [
        0.001220703125,
        0.01123046875
      ],
      "type": "VEC2"
    },
    {
      "bufferView": 1,
      "byteOffset": 1048512,
      "componentType": 5126,
      "count": 65532,
      "max": [
        0.99755859375,
        0.994873046875
      ],
      "min": [
        0.001220703125,
        0.01123046875
      ],
      "type": "VEC2"
    },
    {
      "bufferView": 0,
      "componentType": 5125,
      "count": 328782,
      "type": "SCALAR"
    },
    {
      "bufferView": 2,
      "byteOffset": 1572768,
      "componentType": 5126,
      "count": 65532,
      "max": [
        0.24964909255504608,
        0.2244873046875,
        0.616668701171875
      ],
      "min": [
        0.0804443508386612,
        -0.3560333847999573,
        0.213623046875
      ],
      "type": "VEC3"
    },
    {
      "bufferView": 2,
      "byteOffset": 2359152,
      "componentType": 5126,
      "count": 65532,
      "max": [
        1.0,
        0.9996903538703918,
        0.9998771548271179
      ],
      "min": [
        -0.9999688863754272,
        -0.9999690651893616,
        -0.9999690055847168
      ],
      "type": "VEC3"
    },
    {
      "bufferView": 3,
      "byteOffset": 1048512,
      "componentType": 5126,
      "count": 65532,
      "max": [
        0.9999587535858154,
        0.9999993443489075,
        0.9999599456787109,
        1.0
      ],
      "min": [
        -0.9999991059303284,
        -0.9999694228172302,
        -0.9999651908874512,
        -1.0
      ],
      "type": "VEC4"
    },
    {
      "bufferView": 1,
      "byteOffset": 1572768,
      "componentType": 5126,
      "count": 65532,
      "max": [
        0.988525390625,
        0.98974609375
      ],
      "min": [
        0.003173828125,
        0.005126953125
      ],
      "type": "VEC2"
    },
    {
      "bufferView": 1,
      "byteOffset": 2097024,
      "componentType": 5126,
      "count": 65532,
      "max": [
        0.988525390625,
        0.98974609375
      ],
      "min": [
        0.003173828125,
        0.005126953125
      ],
      "type": "VEC2"
    },
    {
      "bufferView": 1,
      "byteOffset": 2621280,
      "componentType": 5126,
      "count": 65532,
      "max": [
        0.988525390625,
        0.98974609375
      ],
      "min": [
        0.003173828125,
        0.005126953125
      ],
      "type": "VEC2"
    },
    {
      "bufferView": 0,
      "byteOffset": 1315128,
      "componentType": 5125,
      "count": 289773,
      "type": "SCALAR"
    },
    {
      "bufferView": 2,
      "byteOffset": 3145536,
      "componentType": 5126,
      "count": 65532,
      "max": [
        0.2429352104663849,
        0.2974395751953125,
        0.77203369140625
      ],
      "min": [
        0.0015097782015800476,
        -0.40455636382102966,
        0.005035400390625
      ],
      "type": "VEC3"
    },
    {
      "bufferView": 2,
      "byteOffset": 3931920,
      "componentType": 5126,
      "count": 65532,
      "max": [
        1.0,
        0.999597430229187,
        0.9998472332954407
      ],
      "min": [
        -1.0,
        -1.0,
        -0.9997531771659851
      ],
      "type": "VEC3"
    },
    {
      "bufferView": 3,
      "byteOffset": 2097024,
      "componentType": 5126,
      "count": 65532,
      "max": [
        1.0,
        0.9999986290931702,
        0.9997925162315369,
        1.0
      ],
      "min": [
        -0.9998205304145813,
        -0.9999935030937195,
        -0.9999982118606567,
        -1.0
      ],
      "type": "VEC4"
    },
    {
      "bufferView": 1,
      "byteOffset": 3145536,
      "componentType": 5126,
      "count": 65532,
      "max": [
        0.986572265625,
        0.99658203125
      ],
      "min": [
        0.001953125,
        0.003173828125
      ],
      "type": "VEC2"
    },
    {
      "bufferView": 1,
      "byteOffset": 3669792,
      "componentType": 5126,
      "count": 65532,
      "max": [
        0.986572265625,
        0.99658203125
      ],
      "min": [
        0.001953125,
        0.003173828125
      ],
      "type": "VEC2"
    },
    {
      "bufferView": 1,
      "byteOffset": 4194048,
      "componentType": 5126,
      "count": 65532,
      "max": [
        0.986572265625,
        0.99658203125
      ],
      "min": [
        0.001953125,
        0.003173828125
      ],
      "type": "VEC2"
    },
    {
      "bufferView": 0,
      "byteOffset": 2474220,
      "componentType": 5125,
      "count": 280650,
      "type": "SCALAR"
    },
    {
      "bufferView": 2,
      "byteOffset": 4718304,
      "componentType": 5126,
      "count": 65532,
      "max": [
        0.1989593803882599,
        0.4114532768726349,
        0.776519775390625
      ],
      "min": [
        0.0631561428308487,
        -0.41319283843040466,
        0.004302978515625
      ],
      "type": "VEC3"
    },
    {
      "bufferView": 2,
      "byteOffset": 5504688,
      "componentType": 5126,
      "count": 65532,
      "max": [
        1.0,
        0.9991027116775513,
        0.9999383687973022
      ],
      "min": [
        -0.9999383091926575,
        -0.9997524619102478,
        -0.9999691247940063
      ],
      "type": "VEC3"
    },
    {
      "bufferView": 3,
      "byteOffset": 3145536,
      "componentType": 5126,
      "count": 65532,
      "max": [
        0.9999687075614929,
        0.9999986290931702,
        0.9999891519546509,
        1.0
      ],
      "min": [
        -0.9999995827674866,
        -0.9999897480010986,
        -0.9998539686203003,
        -1.0
      ],
      "type": "VEC4"
    },
    {
      "bufferView": 1,
      "byteOffset": 4718304,
      "componentType": 5126,
      "count": 65532,
      "max": [
        1.0,
        0.9990234375
      ],
      "min": [
        0.000732421875,
        0.0009765625
      ],
      "type": "VEC2"
    },
    {
      "bufferView": 1,
      "byteOffset": 5242560,
      "componentType": 5126,
      "count": 65532,
      "max": [
        1.0,
        0.9990234375
      ],
      "min": [
        0.000732421875,
        0.0009765625
      ],
      "type": "VEC2"
    },
    {
      "bufferView": 1,
      "byteOffset": 5766816,
      "componentType": 5126,
      "count": 65532,
      "max": [
        1.0,
        0.9990234375
      ],
      "min": [
        0.000732421875,
        0.0009765625
      ],
      "type": "VEC2"
    },
    {
      "bufferView": 0,
      "byteOffset": 3596820,
      "componentType": 5125,
      "count": 298323,
      "type": "SCALAR"
    },
    {
      "bufferView": 2,
      "byteOffset": 6291072,
      "componentType": 5126,
      "count": 65532,
      "max": [
        0.23667912185192108,
        0.4646454453468323,
        0.755645751953125
      ],
      "min": [
        -0.023841826245188713,
        -0.46803292632102966,
        0.000152587890625
      ],
      "type": "VEC3"
    },
    {
      "bufferView": 2,
      "byteOffset": 7077456,
      "componentType": 5126,
      "count": 65532,
      "max": [
        1.0,
        0.9998762607574463,
        0.9994425773620605
      ],
      "min": [
        -0.9999691843986511,
        -0.9999381899833679,
        -0.9999383091926575
      ],
      "type": "VEC3"
    },
    {
      "bufferView": 3,
      "byteOffset": 4194048,
      "componentType": 5126,
      "count": 65532,
      "max": [
        0.9999693632125854,
        0.9999688267707825,
        0.99996018409729,
        1.0
      ],
      "min": [
        -0.999994158744812,
        -0.9999596476554871,
        -0.9998735785484314,
        -1.0
      ],
      "type": "VEC4"
    },
    {
      "bufferView": 1,
      "byteOffset": 6291072,
      "componentType": 5126,
      "count": 65532,
      "max": [
        0.99658203125,
        1.0
      ],
      "min": [
        0.0,
        0.000244140625
      ],
      "type": "VEC2"
    },
    {
      "bufferView": 1,
      "byteOffset": 6815328,
      "componentType": 5126,
      "count": 65532,
      "max": [
        0.99658203125,
        1.0
      ],
      "min": [
        0.0,
        0.000244140625
      ],
      "type": "VEC2"
    },
    {
      "bufferView": 1,
      "byteOffset": 7339584,
      "componentType": 5126,
      "count": 65532,
      "max": [
        0.99658203125,
        1.0
      ],
      "min": [
        0.0,
        0.000244140625
      ],
      "type": "VEC2"
    },
    {
      "bufferView": 0,
      "byteOffset": 4790112,
      "componentType": 5125,
      "count": 280635,
      "type": "SCALAR"
    },
    {
      "bufferView": 2,
      "byteOffset": 7863840,
      "componentType": 5126,
      "count": 65532,
      "max": [
        0.20425420999526978,
        0.4451752305030823,
        0.7733154296875
      ],
      "min": [
        -0.006539824418723583,
        -0.47233590483665466,
        0.003997802734375
      ],
      "type": "VEC3"
    },
    {
      "bufferView": 2,
      "byteOffset": 8650224,
      "componentType": 5126,
      "count": 65532,
      "max": [
        0.9999692440032959,
        0.999876081943512,
        0.9999384880065918
      ],
      "min": [
        -1.0,
        -0.9996899962425232,
        -0.9998757243156433
      ],
      "type": "VEC3"
    },
    {
      "bufferView": 3,
      "byteOffset": 5242560,
      "componentType": 5126,
      "count": 65532,
      "max": [
        0.999971866607666,
        0.999941885471344,
        0.9999691843986511,
        1.0
      ],
      "min": [
        -0.9999886155128479,
        -0.9999688863754272,
        -0.9999542832374573,
        -1.0
      ],
      "type": "VEC4"
    },
    {
      "bufferView": 1,
      "byteOffset": 7863840,
      "componentType": 5126,
      "count": 65532,
      "max": [
        0.995849609375,
        0.99951171875
      ],
      "min": [
        0.02001953125,
        0.001953125
      ],
      "type": "VEC2"
    },
    {
      "bufferView": 1,
      "byteOffset": 8388096,
      "componentType": 5126,
      "count": 65532,
      "max": [
        0.995849609375,
        0.99951171875
      ],
      "min": [
        0.02001953125,
        0.001953125
      ],
      "type": "VEC2"
    },
    {
      "bufferView": 1,
      "byteOffset": 8912352,
      "componentType": 5126,
      "count": 65532,
      "max": [
        0.995849609375,
        0.99951171875
      ],
      "min": [
        0.02001953125,
        0.001953125
      ],
      "type": "VEC2"
    },
    {
      "bufferView": 0,
      "byteOffset": 5912652,
      "componentType": 5125,
      "count": 277914,
      "type": "SCALAR"
    },
    {
      "bufferView": 2,
      "byteOffset": 9436608,
      "componentType": 5126,
      "count": 65532,
      "max": [
        0.19606025516986847,
        0.4814606308937073,
        0.77447509765625
      ],
      "min": [
        -0.014214430004358292,
        -0.4766693711280823,
        0.00579833984375
      ],
      "type": "VEC3"
    },
    {
      "bufferView": 2,
      "byteOffset": 10222992,
      "componentType": 5126,
      "count": 65532,
      "max": [
        1.0,
        0.9999376535415649,
        0.9991955161094666
      ],
      "min": [
        -1.0,
        -0.9999691843986511,
        -0.9999383687973022
      ],
      "type": "VEC3"
    },
    {
      "bufferView": 3,
      "byteOffset": 6291072,
      "componentType": 5126,
      "count": 65532,
      "max": [
        1.0,
        0.999478816986084,
        0.9999599456787109,
        1.0
      ],
      "min": [
        -0.9998775720596313,
        -0.9990822076797485,
        -0.9999571442604065,
        -1.0
      ],
      "type": "VEC4"
    },
    {
      "bufferView": 1,
      "byteOffset": 9436608,
      "componentType": 5126,
      "count": 65532,
      "max": [
        0.994384765625,
        0.994873046875
      ],
      "min": [
        0.01220703125,
        0.015380859375
      ],
      "type": "VEC2"
    },
    {
      "bufferView": 1,
      "byteOffset": 9960864,
      "componentType": 5126,
      "count": 65532,
      "max": [
        0.994384765625,
        0.994873046875
      ],
      "min": [
        0.01220703125,
        0.015380859375
      ],
      "type": "VEC2"
    },
    {
      "bufferView": 1,
      "byteOffset": 10485120,
      "componentType": 5126,
      "count": 65532,
      "max": [
        0.994384765625,
        0.994873046875
      ],
      "min": [
        0.01220703125,
        0.015380859375
      ],
      "type": "VEC2"
    },
    {
      "bufferView": 0,
      "byteOffset": 7024308,
      "componentType": 5125,
      "count": 265791,
      "type": "SCALAR"
    },
    {
      "bufferView": 2,
      "byteOffset": 11009376,
      "componentType": 5126,
      "count": 65532,
      "max": [
        0.1653595268726349,
        0.4698639512062073,
        0.782623291015625
      ],
      "min": [
        -0.022134747356176376,
        -0.4765473008155823,
        0.0
      ],
      "type": "VEC3"
    },
    {
      "bufferView": 2,
      "byteOffset": 11795760,
      "componentType": 5126,
      "count": 65532,
      "max": [
        0.999938428401947,
        0.9999382495880127,
        0.9999384880065918
      ],
      "min": [
        -1.0,
        -0.9999382495880127,
        -0.999938428401947
      ],
      "type": "VEC3"
    },
    {
      "bufferView": 3,
      "byteOffset": 7339584,
      "componentType": 5126,
      "count": 65532,
      "max": [
        0.9999744892120361,
        1.0,
        0.9995402693748474,
        1.0
      ],
      "min": [
        -1.0,
        -0.9999697208404541,
        -0.9999998807907104,
        -1.0
      ],
      "type": "VEC4"
    },
    {
      "bufferView": 1,
      "byteOffset": 11009376,
      "componentType": 5126,
      "count": 65532,
      "max": [
        1.0,
        0.998779296875
      ],
      "min": [
        0.008056640625,
        0.001220703125
      ],
      "type": "VEC2"
    },
    {
      "bufferView": 1,
      "byteOffset": 11533632,
      "componentType": 5126,
      "count": 65532,
      "max": [
        1.0,
        0.998779296875
      ],
      "min": [
        0.008056640625,
        0.001220703125
      ],
      "type": "VEC2"
    },
    {
      "bufferView": 1,
      "byteOffset": 12057888,
      "componentType": 5126,
      "count": 65532,
      "max": [
        1.0,
        0.998779296875
      ],
      "min": [
        0.008056640625,
        0.001220703125
      ],
      "type": "VEC2"
    },
    {
      "bufferView": 0,
      "byteOffset": 8087472,
      "componentType": 5125,
      "count": 274491,
      "type": "SCALAR"
    },
    {
      "bufferView": 2,
      "byteOffset": 12582144,
      "componentType": 5126,
      "count": 65532,
      "max": [
        0.1318359524011612,
        0.4698639512062073,
        0.78497314453125
      ],
      "min": [
        -0.0232563354074955,
        -0.4873505234718323,
        0.00775146484375
      ],
      "type": "VEC3"
    },
    {
      "bufferView": 2,
      "byteOffset": 13368528,
      "componentType": 5126,
      "count": 65532,
      "max": [
        1.0,
        0.9991950988769531,
        1.0
      ],
      "min": [
        -0.9999693632125854,
        -0.9999691247940063,
        -0.9999694228172302
      ],
      "type": "VEC3"
    },
    {
      "bufferView": 3,
      "byteOffset": 8388096,
      "componentType": 5126,
      "count": 65532,
      "max": [
        0.9999992251396179,
        0.9999621510505676,
        0.9998760223388672,
        1.0
      ],
      "min": [
        -0.999977707862854,
        -0.9999258518218994,
        -0.9999690651893616,
        -1.0
      ],
      "type": "VEC4"
    },
    {
      "bufferView": 1,
      "byteOffset": 12582144,
      "componentType": 5126,
      "count": 65532,
      "max": [
        0.990234375,
        0.994873046875
      ],
      "min": [
        0.005126953125,
        0.002685546875
      ],
      "type": "VEC2"
    },
    {
      "bufferView": 1,
      "byteOffset": 13106400,
      "componentType": 5126,
      "count": 65532,
      "max": [
        0.990234375,
        0.994873046875
      ],
      "min": [
        0.005126953125,
        0.002685546875
      ],
      "type": "VEC2"
    },
    {
      "bufferView": 1,
      "byteOffset": 13630656,
      "componentType": 5126,
      "count": 65532,
      "max": [
        0.990234375,
        0.994873046875
      ],
      "min": [
        0.005126953125,
        0.002685546875
      ],
      "type": "VEC2"
    },
    {
      "bufferView": 0,
      "byteOffset": 9185436,
      "componentType": 5125,
      "count": 292080,
      "type": "SCALAR"
    },
    {
      "bufferView": 2,
      "byteOffset": 14154912,
      "componentType": 5126,
      "count": 65532,
      "max": [
        0.13275150954723358,
        0.4680023789405823,
        0.784271240234375
      ],
      "min": [
        -0.034835852682590485,
        -0.4900360703468323,
        0.004425048828125
      ],
      "type": "VEC3"
    },
    {
      "bufferView": 2,
      "byteOffset": 14941296,
      "componentType": 5126,
      "count": 65532,
      "max": [
        0.9999690651893616,
        0.9999381303787231,
        0.9994739294052124
      ],
      "min": [
        -1.0,
        -1.0,
        -0.9999692440032959
      ],
      "type": "VEC3"
    },
    {
      "bufferView": 3,
      "byteOffset": 9436608,
      "componentType": 5126,
      "count": 65532,
      "max": [
        0.9999984502792358,
        0.9999992251396179,
        0.9999501705169678,
        1.0
      ],
      "min": [
        -0.9999948740005493,
        -1.0,
        -0.9999690651893616,
        -1.0
      ],
      "type": "VEC4"
    },
    {
      "bufferView": 1,
      "byteOffset": 14154912,
      "componentType": 5126,
      "count": 65532,
      "max": [
        0.999755859375,
        0.99755859375
      ],
      "min": [
        0.005126953125,
        0.0
      ],
      "type": "VEC2"
    },
    {
      "bufferView": 1,
      "byteOffset": 14679168,
      "componentType": 5126,
      "count": 65532,
      "max": [
        0.999755859375,
        0.99755859375
      ],
      "min": [
        0.005126953125,
        0.0
      ],
      "type": "VEC2"
    },
    {
      "bufferView": 1,
      "byteOffset": 15203424,
      "componentType": 5126,
      "count": 65532,
      "max": [
        0.999755859375,
        0.99755859375
      ],
      "min": [
        0.005126953125,
        0.0
      ],
      "type": "VEC2"
    },
    {
      "bufferView": 0,
      "byteOffset": 10353756,
      "componentType": 5125,
      "count": 275328,
      "type": "SCALAR"
    },
    {
      "bufferView": 2,
      "byteOffset": 15727680,
      "componentType": 5126,
      "count": 65532,
      "max": [
        0.12003333866596222,
        0.4862213730812073,
        0.784942626953125
      ],
      "min": [
        -0.2093658447265625,
        -0.4892731308937073,
        0.00531005859375
      ],
      "type": "VEC3"
    },
    {
      "bufferView": 2,
      "byteOffset": 16514064,
      "componentType": 5126,
      "count": 65532,
      "max": [
        0.9999692440032959,
        1.0,
        0.9999692440032959
      ],
      "min": [
        -0.9998454451560974,
        -0.9999693632125854,
        -0.9999692440032959
      ],
      "type": "VEC3"
    },
    {
      "bufferView": 3,
      "byteOffset": 10485120,
      "componentType": 5126,
      "count": 65532,
      "max": [
        1.0,
        0.9996197819709778,
        0.9999666810035706,
        1.0
      ],
      "min": [
        -0.9999997615814209,
        -0.9999535083770752,
        -0.9999625086784363,
        -1.0
      ],
      "type": "VEC4"
    },
    {
      "bufferView": 1,
      "byteOffset": 15727680,
      "componentType": 5126,
      "count": 65532,
      "max": [
        0.99951171875,
        0.999755859375
      ],
      "min": [
        0.000732421875,
        0.00341796875
      ],
      "type": "VEC2"
    },
    {
      "bufferView": 1,
      "byteOffset": 16251936,
      "componentType": 5126,
      "count": 65532,
      "max": [
        0.99951171875,
        0.999755859375
      ],
      "min": [
        0.000732421875,
        0.00341796875
      ],
      "type": "VEC2"
    },
    {
      "bufferView": 1,
      "byteOffset": 16776192,
      "componentType": 5126,
      "count": 65532,
      "max": [
        0.99951171875,
        0.999755859375
      ],
      "min": [
        0.000732421875,
        0.00341796875
      ],
      "type": "VEC2"
    },
    {
      "bufferView": 0,
      "byteOffset": 11455068,
      "componentType": 5125,
      "count": 265980,
      "type": "SCALAR"
    },
    {
      "bufferView": 2,
      "byteOffset": 17300448,
      "componentType": 5126,
      "count": 65532,
      "max": [
        -0.028352748602628708,
        0.41227731108665466,
        0.7525634765625
      ],
      "min": [
        -0.20484928786754608,
        -0.4379730820655823,
        0.005279541015625
      ],
      "type": "VEC3"
    },
    {
      "bufferView": 2,
      "byteOffset": 18086832,
      "componentType": 5126,
      "count": 65532,
      "max": [
        0.9999692440032959,
        0.9995050430297852,
        0.9999383091926575
      ],
      "min": [
        -1.0,
        -0.9999383687973022,
        -0.9999691247940063
      ],
      "type": "VEC3"
    },
    {
      "bufferView": 3,
      "byteOffset": 11533632,
      "componentType": 5126,
      "count": 65532,
      "max": [
        0.9998484253883362,
        0.9999224543571472,
        0.9999914765357971,
        1.0
      ],
      "min": [
        -0.9999733567237854,
        -0.9999566674232483,
        -0.9998095631599426,
        -1.0
      ],
      "type": "VEC4"
    },
    {
      "bufferView": 1,
      "byteOffset": 17300448,
      "componentType": 5126,
      "count": 65532,
      "max": [
        0.98046875,
        0.99951171875
      ],
      "min": [
        0.004150390625,
        0.00341796875
      ],
      "type": "VEC2"
    },
    {
      "bufferView": 1,
      "byteOffset": 17824704,
      "componentType": 5126,
      "count": 65532,
      "max": [
        0.98046875,
        0.99951171875
      ],
      "min": [
        0.004150390625,
        0.00341796875
      ],
      "type": "VEC2"
    },
    {
      "bufferView": 1,
      "byteOffset": 18348960,
      "componentType": 5126,
      "count": 65532,
      "max": [
        0.98046875,
        0.99951171875
      ],
      "min": [
        0.004150390625,
        0.00341796875
      ],
      "type": "VEC2"
    },
    {
      "bufferView": 0,
      "byteOffset": 12518988,
      "componentType": 5125,
      "count": 322509,
      "type": "SCALAR"
    },
    {
      "bufferView": 2,
      "byteOffset": 18873216,
      "componentType": 5126,
      "count": 65532,
      "max": [
        -0.02065844088792801,
        0.41227731108665466,
        0.71502685546875
      ],
      "min": [
        -0.2096252739429474,
        -0.4358673691749573,
        0.00030517578125
      ],
      "type": "VEC3"
    },
    {
      "bufferView": 2,
      "byteOffset": 19659600,
      "componentType": 5126,
      "count": 65532,
      "max": [
        0.9999693036079407,
        0.9995972514152527,
        0.9979920983314514
      ],
      "min": [
        -0.9999691843986511,
        -0.9998764395713806,
        -0.999937891960144
      ],
      "type": "VEC3"
    },
    {
      "bufferView": 3,
      "byteOffset": 12582144,
      "componentType": 5126,
      "count": 65532,
      "max": [
        0.9999172687530518,
        0.9999830722808838,
        0.9999662041664124,
        1.0
      ],
      "min": [
        -0.9999610781669617,
        -1.0,
        -0.9999997019767761,
        -1.0
      ],
      "type": "VEC4"
    },
    {
      "bufferView": 1,
      "byteOffset": 18873216,
      "componentType": 5126,
      "count": 65532,
      "max": [
        0.998046875,
        0.999755859375
      ],
      "min": [
        0.0048828125,
        0.001953125
      ],
      "type": "VEC2"
    },
    {
      "bufferView": 1,
      "byteOffset": 19397472,
      "componentType": 5126,
      "count": 65532,
      "max": [
        0.998046875,
        0.999755859375
      ],
      "min": [
        0.0048828125,
        0.001953125
      ],
      "type": "VEC2"
    },
    {
      "bufferView": 1,
      "byteOffset": 19921728,
      "componentType": 5126,
      "count": 65532,
      "max": [
        0.998046875,
        0.999755859375
      ],
      "min": [
        0.0048828125,
        0.001953125
      ],
      "type": "VEC2"
    },
    {
      "bufferView": 0,
      "byteOffset": 13809024,
      "componentType": 5125,
      "count": 290931,
      "type": "SCALAR"
    },
    {
      "bufferView": 2,
      "byteOffset": 20445984,
      "componentType": 5126,
      "count": 65532,
      "max": [
        -0.04520794004201889,
        0.41209420561790466,
        0.692657470703125
      ],
      "min": [
        -0.2436371147632599,
        -0.3991546928882599,
        0.004241943359375
      ],
      "type": "VEC3"
    },
    {
      "bufferView": 2,
      "byteOffset": 21232368,
      "componentType": 5126,
      "count": 65532,
      "max": [
        0.9998764991760254,
        0.9998766183853149,
        1.0
      ],
      "min": [
        -1.0,
        -1.0,
        -0.9998452663421631
      ],
      "type": "VEC3"
    },
    {
      "bufferView": 3,
      "byteOffset": 13630656,
      "componentType": 5126,
      "count": 65532,
      "max": [
        0.9999651312828064,
        1.0,
        0.9999980926513672,
        1.0
      ],
      "min": [
        -0.9999268054962158,
        -0.9998791217803955,
        -0.9999797940254211,
        -1.0
      ],
      "type": "VEC4"
    },
    {
      "bufferView": 1,
      "byteOffset": 20445984,
      "componentType": 5126,
      "count": 65532,
      "max": [
        0.99072265625,
        0.99853515625
      ],
      "min": [
        0.0068359375,
        0.00244140625
      ],
      "type": "VEC2"
    },
    {
      "bufferView": 1,
      "byteOffset": 20970240,
      "componentType": 5126,
      "count": 65532,
      "max": [
        0.99072265625,
        0.99853515625
      ],
      "min": [
        0.0068359375,
        0.00244140625
      ],
      "type": "VEC2"
    },
    {
      "bufferView": 1,
      "byteOffset": 21494496,
      "componentType": 5126,
      "count": 65532,
      "max": [
        0.99072265625,
        0.99853515625
      ],
      "min": [
        0.0068359375,
        0.00244140625
      ],
      "type": "VEC2"
    },
    {
      "bufferView": 0,
      "byteOffset": 14972748,
      "componentType": 5125,
      "count": 277137,
      "type": "SCALAR"
    },
    {
      "bufferView": 2,
      "byteOffset": 22018752,
      "componentType": 5126,
      "count": 65532,
      "max": [
        -0.05565260350704193,
        0.3033295273780823,
        0.65423583984375
      ],
      "min": [
        -0.2427673637866974,
        -0.3679962158203125,
        0.004791259765625
      ],
      "type": "VEC3"
    },
    {
      "bufferView": 2,
      "byteOffset": 22805136,
      "componentType": 5126,
      "count": 65532,
      "max": [
        0.9996907711029053,
        0.9999381899833679,
        1.0
      ],
      "min": [
        -1.0,
        -0.9999692440032959,
        -0.9998450875282288
      ],
      "type": "VEC3"
    },
    {
      "bufferView": 3,
      "byteOffset": 14679168,
      "componentType": 5126,
      "count": 65532,
      "max": [
        0.9999651312828064,
        0.9999974966049194,
        1.0,
        1.0
      ],
      "min": [
        -0.9999505281448364,
        -1.0,
        -0.9999779462814331,
        -1.0
      ],
      "type": "VEC4"
    },
    {
      "bufferView": 1,
      "byteOffset": 22018752,
      "componentType": 5126,
      "count": 65532,
      "max": [
        0.99755859375,
        1.0
      ],
      "min": [
        0.013916015625,
        0.000244140625
      ],
      "type": "VEC2"
    },
    {
      "bufferView": 1,
      "byteOffset": 22543008,
      "componentType": 5126,
      "count": 65532,
      "max": [
        0.99755859375,
        1.0
      ],
      "min": [
        0.013916015625,
        0.000244140625
      ],
      "type": "VEC2"
    },
    {
      "bufferView": 1,
      "byteOffset": 23067264,
      "componentType": 5126,
      "count": 65532,
      "max": [
        0.99755859375,
        1.0
      ],
      "min": [
        0.013916015625,
        0.000244140625
      ],
      "type": "VEC2"
    },
    {
      "bufferView": 0,
      "byteOffset": 16081296,
      "componentType": 5125,
      "count": 282021,
      "type": "SCALAR"
    },
    {
      "bufferView": 2,
      "byteOffset": 23591520,
      "componentType": 5126,
      "count": 65532,
      "max": [
        -0.1715240627527237,
        0.11318974196910858,
        0.5777740478515625
      ],
      "min": [
        -0.2497711479663849,
        -0.3353118896484375,
        0.230743408203125
      ],
      "type": "VEC3"
    },
    {
      "bufferView": 2,
      "byteOffset": 24377904,
      "componentType": 5126,
      "count": 65532,
      "max": [
        0.9861501455307007,
        0.9997212290763855,
        0.995995819568634
      ],
      "min": [
        -0.9999693036079407,
        -0.9994742274284363,
        -0.9999691843986511
      ],
      "type": "VEC3"
    },
    {
      "bufferView": 3,
      "byteOffset": 15727680,
      "componentType": 5126,
      "count": 65532,
      "max": [
        0.9999312162399292,
        0.9998877644538879,
        0.9999687075614929,
        1.0
      ],
      "min": [
        -0.9999937415122986,
        -0.9999661445617676,
        -0.9999797940254211,
        -1.0
      ],
      "type": "VEC4"
    },
    {
      "bufferView": 1,
      "byteOffset": 23591520,
      "componentType": 5126,
      "count": 65532,
      "max": [
        0.98974609375,
        0.994873046875
      ],
      "min": [
        0.02001953125,
        0.002197265625
      ],
      "type": "VEC2"
    },
    {
      "bufferView": 1,
      "byteOffset": 24115776,
      "componentType": 5126,
      "count": 65532,
      "max": [
        0.98974609375,
        0.994873046875
      ],
      "min": [
        0.02001953125,
        0.002197265625
      ],
      "type": "VEC2"
    },
    {
      "bufferView": 1,
      "byteOffset": 24640032,
      "componentType": 5126,
      "count": 65532,
      "max": [
        0.98974609375,
        0.994873046875
      ],
      "min": [
        0.02001953125,
        0.002197265625
      ],
      "type": "VEC2"
    },
    {
      "bufferView": 0,
      "byteOffset": 17209380,
      "componentType": 5125,
      "count": 308229,
      "type": "SCALAR"
    },
    {
      "bufferView": 2,
      "byteOffset": 25164288,
      "componentType": 5126,
      "count": 65532,
      "max": [
        -0.002135711256414652,
        0.39894112944602966,
        0.733642578125
      ],
      "min": [
        -0.2388305813074112,
        -0.4370880722999573,
        0.036834716796875
      ],
      "type": "VEC3"
    },
    {
      "bufferView": 2,
      "byteOffset": 25950672,
      "componentType": 5126,
      "count": 65532,
      "max": [
        1.0,
        0.999876081943512,
        0.9998450875282288
      ],
      "min": [
        -0.9999690055847168,
        -0.9992251396179199,
        -0.9998460412025452
      ],
      "type": "VEC3"
    },
    {
      "bufferView": 3,
      "byteOffset": 16776192,
      "componentType": 5126,
      "count": 65532,
      "max": [
        0.9998854398727417,
        0.9999913573265076,
        0.9999692440032959,
        1.0
      ],
      "min": [
        -1.0,
        -0.9997197985649109,
        -0.9999998211860657,
        -1.0
      ],
      "type": "VEC4"
    },
    {
      "bufferView": 1,
      "byteOffset": 25164288,
      "componentType": 5126,
      "count": 65532,
      "max": [
        0.999755859375,
        0.99853515625
      ],
      "min": [
        0.0166015625,
        0.00439453125
      ],
      "type": "VEC2"
    },
    {
      "bufferView": 1,
      "byteOffset": 25688544,
      "componentType": 5126,
      "count": 65532,
      "max": [
        0.999755859375,
        0.99853515625
      ],
      "min": [
        0.0166015625,
        0.00439453125
      ],
      "type": "VEC2"
    },
    {
      "bufferView": 1,
      "byteOffset": 26212800,
      "componentType": 5126,
      "count": 65532,
      "max": [
        0.999755859375,
        0.99853515625
      ],
      "min": [
        0.0166015625,
        0.00439453125
      ],
      "type": "VEC2"
    },
    {
      "bufferView": 0,
      "byteOffset": 18442296,
      "componentType": 5125,
      "count": 230172,
      "type": "SCALAR"
    },
    {
      "bufferView": 2,
      "byteOffset": 26737056,
      "componentType": 5126,
      "count": 65532,
      "max": [
        0.01026057917624712,
        0.4695892930030823,
        0.778411865234375
      ],
      "min": [
        -0.12240602821111679,
        -0.4481354355812073,
        0.004547119140625
      ],
      "type": "VEC3"
    },
    {
      "bufferView": 2,
      "byteOffset": 27523440,
      "componentType": 5126,
      "count": 65532,
      "max": [
        0.9999693632125854,
        0.9999380707740784,
        0.9998764395713806
      ],
      "min": [
        -0.9999693632125854,
        -0.9999383687973022,
        -1.0
      ],
      "type": "VEC3"
    },
    {
      "bufferView": 3,
      "byteOffset": 17824704,
      "componentType": 5126,
      "count": 65532,
      "max": [
        0.9999992251396179,
        0.9999862909317017,
        0.999994158744812,
        1.0
      ],
      "min": [
        -0.9999666213989258,
        -0.999997079372406,
        -0.9998196959495544,
        -1.0
      ],
      "type": "VEC4"
    },
    {
      "bufferView": 1,
      "byteOffset": 26737056,
      "componentType": 5126,
      "count": 65532,
      "max": [
        0.99951171875,
        0.998046875
      ],
      "min": [
        0.0,
        0.001220703125
      ],
      "type": "VEC2"
    },
    {
      "bufferView": 1,
      "byteOffset": 27261312,
      "componentType": 5126,
      "count": 65532,
      "max": [
        0.99951171875,
        0.998046875
      ],
      "min": [
        0.0,
        0.001220703125
      ],
      "type": "VEC2"
    },
    {
      "bufferView": 1,
      "byteOffset": 27785568,
      "componentType": 5126,
      "count": 65532,
      "max": [
        0.99951171875,
        0.998046875
      ],
      "min": [
        0.0,
        0.001220703125
      ],
      "type": "VEC2"
    },
    {
      "bufferView": 0,
      "byteOffset": 19362984,
      "componentType": 5125,
      "count": 294651,
      "type": "SCALAR"
    },
    {
      "bufferView": 2,
      "byteOffset": 28309824,
      "componentType": 5126,
      "count": 65532,
      "max": [
        0.021202070638537407,
        0.4697723984718323,
        0.7825927734375
      ],
      "min": [
        -0.10887139290571213,
        -0.4612885117530823,
        0.00030517578125
      ],
      "type": "VEC3"
    },
    {
      "bufferView": 2,
      "byteOffset": 29096208,
      "componentType": 5126,
      "count": 65532,
      "max": [
        0.9999691843986511,
        0.9999380707740784,
        0.9994744062423706
      ],
      "min": [
        -0.9999691247940063,
        -0.9998762607574463,
        -1.0
      ],
      "type": "VEC3"
    },
    {
      "bufferView": 3,
      "byteOffset": 18873216,
      "componentType": 5126,
      "count": 65532,
      "max": [
        0.9999932050704956,
        0.9999045133590698,
        0.9998597502708435,
        1.0
      ],
      "min": [
        -0.9999698400497437,
        -0.9999992847442627,
        -0.9999678134918213,
        -1.0
      ],
      "type": "VEC4"
    },
    {
      "bufferView": 1,
      "byteOffset": 28309824,
      "componentType": 5126,
      "count": 65532,
      "max": [
        0.991943359375,
        0.998779296875
      ],
      "min": [
        0.02294921875,
        0.009033203125
      ],
      "type": "VEC2"
    },
    {
      "bufferView": 1,
      "byteOffset": 28834080,
      "componentType": 5126,
      "count": 65532,
      "max": [
        0.991943359375,
        0.998779296875
      ],
      "min": [
        0.02294921875,
        0.009033203125
      ],
      "type": "VEC2"
    },
    {
      "bufferView": 1,
      "byteOffset": 29358336,
      "componentType": 5126,
      "count": 65532,
      "max": [
        0.991943359375,
        0.998779296875
      ],
      "min": [
        0.02294921875,
        0.009033203125
      ],
      "type": "VEC2"
    },
    {
      "bufferView": 0,
      "byteOffset": 20541588,
      "componentType": 5125,
      "count": 278499,
      "type": "SCALAR"
    },
    {
      "bufferView": 2,
      "byteOffset": 29882592,
      "componentType": 5126,
      "count": 65532,
      "max": [
        0.014342300593852997,
        0.4619293808937073,
        0.781707763671875
      ],
      "min": [
        -0.08602142333984375,
        -0.4873505234718323,
        0.000732421875
      ],
      "type": "VEC3"
    },
    {
      "bufferView": 2,
      "byteOffset": 30668976,
      "componentType": 5126,
      "count": 65532,
      "max": [
        0.9999383687973022,
        0.999845027923584,
        0.9999690651893616
      ],
      "min": [
        -0.999845027923584,
        -0.9999692440032959,
        -1.0
      ],
      "type": "VEC3"
    },
    {
      "bufferView": 3,
      "byteOffset": 19921728,
      "componentType": 5126,
      "count": 65532,
      "max": [
        0.9999341368675232,
        0.9999693036079407,
        0.9998412728309631,
        1.0
      ],
      "min": [
        -0.9999960064888,
        -0.9999935030937195,
        -0.9999819993972778,
        -1.0
      ],
      "type": "VEC4"
    },
    {
      "bufferView": 1,
      "byteOffset": 29882592,
      "componentType": 5126,
      "count": 65532,
      "max": [
        0.996826171875,
        0.998046875
      ],
      "min": [
        0.024169921875,
        0.001220703125
      ],
      "type": "VEC2"
    },
    {
      "bufferView": 1,
      "byteOffset": 30406848,
      "componentType": 5126,
      "count": 65532,
      "max": [
        0.996826171875,
        0.998046875
      ],
      "min": [
        0.024169921875,
        0.001220703125
      ],
      "type": "VEC2"
    },
    {
      "bufferView": 1,
      "byteOffset": 30931104,
      "componentType": 5126,
      "count": 65532,
      "max": [
        0.996826171875,
        0.998046875
      ],
      "min": [
        0.024169921875,
        0.001220703125
      ],
      "type": "VEC2"
    },
    {
      "bufferView": 0,
      "byteOffset": 21655584,
      "componentType": 5125,
      "count": 293025,
      "type": "SCALAR"
    },
    {
      "bufferView": 2,
      "byteOffset": 31455360,
      "componentType": 5126,
      "count": 65534,
      "max": [
        0.1275787502527237,
        0.4900360703468323,
        0.78448486328125
      ],
      "min": [
        -0.058853086084127426,
        -0.4877777695655823,
        0.005462646484375
      ],
      "type": "VEC3"
    },
    {
      "bufferView": 2,
      "byteOffset": 32241768,
      "componentType": 5126,
      "count": 65534,
      "max": [
        0.9999693632125854,
        0.9999691843986511,
        1.0
      ],
      "min": [
        -0.9996906518936157,
        -0.9999694228172302,
        -1.0
      ],
      "type": "VEC3"
    },
    {
      "bufferView": 3,
      "byteOffset": 20970240,
      "componentType": 5126,
      "count": 65534,
      "max": [
        1.0,
        1.0,
        0.9999151825904846,
        1.0
      ],
      "min": [
        -0.9999998807907104,
        -0.9998718500137329,
        -0.9999975562095642,
        -1.0
      ],
      "type": "VEC4"
    },
    {
      "bufferView": 1,
      "byteOffset": 31455360,
      "componentType": 5126,
      "count": 65534,
      "max": [
        0.999755859375,
        0.999755859375
      ],
      "min": [
        0.0,
        0.0009765625
      ],
      "type": "VEC2"
    },
    {
      "bufferView": 1,
      "byteOffset": 31979632,
      "componentType": 5126,
      "count": 65534,
      "max": [
        0.999755859375,
        0.999755859375
      ],
      "min": [
        0.0,
        0.0009765625
      ],
      "type": "VEC2"
    },
    {
      "bufferView": 1,
      "byteOffset": 32503904,
      "componentType": 5126,
      "count": 65534,
      "max": [
        0.999755859375,
        0.999755859375
      ],
      "min": [
        0.0,
        0.0009765625
      ],
      "type": "VEC2"
    },
    {
      "bufferView": 0,
      "byteOffset": 22827684,
      "componentType": 5125,
      "count": 239070,
      "type": "SCALAR"
    },
    {
      "bufferView": 2,
      "byteOffset": 33028176,
      "componentType": 5126,
      "count": 10707,
      "max": [
        0.08504492044448853,
        0.4840241074562073,
        0.764892578125
      ],
      "min": [
        -0.00545641640201211,
        -0.4887543320655823,
        0.007354736328125
      ],
      "type": "VEC3"
    },
    {
      "bufferView": 2,
      "byteOffset": 33156660,
      "componentType": 5126,
      "count": 10707,
      "max": [
        0.9984534382820129,
        0.9966400861740112,
        0.9618406295776367
      ],
      "min": [
        -0.99369877576828,
        -0.9991030097007751,
        -0.999938428401947
      ],
      "type": "VEC3"
    },
    {
      "bufferView": 3,
      "byteOffset": 22018784,
      "componentType": 5126,
      "count": 10707,
      "max": [
        0.9999953508377075,
        0.9977892637252808,
        0.994778037071228,
        1.0
      ],
      "min": [
        -0.9994128942489624,
        -0.9934127330780029,
        -0.9997182488441467,
        -1.0
      ],
      "type": "VEC4"
    },
    {
      "bufferView": 1,
      "byteOffset": 33028176,
      "componentType": 5126,
      "count": 10707,
      "max": [
        0.962890625,
        0.998779296875
      ],
      "min": [
        0.024169921875,
        0.00146484375
      ],
      "type": "VEC2"
    },
    {
      "bufferView": 1,
      "byteOffset": 33113832,
      "componentType": 5126,
      "count": 10707,
      "max": [
        0.962890625,
        0.998779296875
      ],
      "min": [
        0.024169921875,
        0.00146484375
      ],
      "type": "VEC2"
    },
    {
      "bufferView": 1,
      "byteOffset": 33199488,
      "componentType": 5126,
      "count": 10707,
      "max": [
        0.962890625,
        0.998779296875
      ],
      "min": [
        0.024169921875,
        0.00146484375
      ],
      "type": "VEC2"
    },
    {
      "bufferView": 0,
      "byteOffset": 23783964,
      "componentType": 5125,
      "count": 23391,
      "type": "SCALAR"
    }
  ],
  "asset": {
    "extras": {
      "author": "Pigcraft (https://sketchfab.com/s8819296)",
      "license": "CC-BY-4.0 (http://creativecommons.org/licenses/by/4.0/)",
      "source": "https://sketchfab.com/3d-models/black-owl-familiar-amber-eyed-dark-fantasy-1944614691df4cae9dc5582a49432332",
      "title": "Black Owl Familiar – Amber-Eyed Dark Fantasy"
    },
    "generator": "Sketchfab-17.20.0",
    "version": "2.0"
  },
  "bufferViews": [
    {
      "buffer": 0,
      "byteLength": 23877528,
      "name": "floatBufferViews",
      "target": 34963
    },
    {
      "buffer": 0,
      "byteLength": 33285144,
      "byteOffset": 23877528,
      "byteStride": 8,
      "name": "floatBufferViews",
      "target": 34962
    },
    {
      "buffer": 0,
      "byteLength": 33285144,
      "byteOffset": 57162672,
      "byteStride": 12,
      "name": "floatBufferViews",
      "target": 34962
    },
    {
      "buffer": 0,
      "byteLength": 22190096,
      "byteOffset": 90447816,
      "byteStride": 16,
      "name": "floatBufferViews",
      "target": 34962
    }
  ],
  "buffers": [
    {
      "byteLength": 112637912,
      "uri": "scene.bin"
    }
  ],
  "images": [
    {
      "uri": "textures/tripo_mat_24b8a081_baseColor.jpeg"
    },
    {
      "uri": "textures/tripo_mat_24b8a081_metallicRoughness.png"
    },
    {
      "uri": "textures/tripo_mat_24b8a081_normal.png"
    }
  ],
  "materials": [
    {
      "doubleSided": true,
      "name": "tripo_mat_24b8a081",
      "normalTexture": {
        "index": 2,
        "texCoord": 1
      },
      "pbrMetallicRoughness": {
        "baseColorTexture": {
          "index": 0
        },
        "metallicRoughnessTexture": {
          "index": 1
        }
      }
    }
  ],
  "meshes": [
    {
      "name": "tripo_node_24b8a081_tripo_mat_24b8a081_0",
      "primitives": [
        {
          "attributes": {
            "NORMAL": 1,
            "POSITION": 0,
            "TANGENT": 2,
            "TEXCOORD_0": 3,
            "TEXCOORD_1": 4,
            "TEXCOORD_2": 5
          },
          "indices": 6,
          "material": 0,
          "mode": 4
        }
      ]
    },
    {
      "name": "tripo_node_24b8a081_tripo_mat_24b8a081_0",
      "primitives": [
        {
          "attributes": {
            "NORMAL": 8,
            "POSITION": 7,
            "TANGENT": 9,
            "TEXCOORD_0": 10,
            "TEXCOORD_1": 11,
            "TEXCOORD_2": 12
          },
          "indices": 13,
          "material": 0,
          "mode": 4
        }
      ]
    },
    {
      "name": "tripo_node_24b8a081_tripo_mat_24b8a081_0",
      "primitives": [
        {
          "attributes": {
            "NORMAL": 15,
            "POSITION": 14,
            "TANGENT": 16,
            "TEXCOORD_0": 17,
            "TEXCOORD_1": 18,
            "TEXCOORD_2": 19
          },
          "indices": 20,
          "material": 0,
          "mode": 4
        }
      ]
    },
    {
      "name": "tripo_node_24b8a081_tripo_mat_24b8a081_0",
      "primitives": [
        {
          "attributes": {
            "NORMAL": 22,
            "POSITION": 21,
            "TANGENT": 23,
            "TEXCOORD_0": 24,
            "TEXCOORD_1": 25,
            "TEXCOORD_2": 26
          },
          "indices": 27,
          "material": 0,
          "mode": 4
        }
      ]
    },
    {
      "name": "tripo_node_24b8a081_tripo_mat_24b8a081_0",
      "primitives": [
        {
          "attributes": {
            "NORMAL": 29,
            "POSITION": 28,
            "TANGENT": 30,
            "TEXCOORD_0": 31,
            "TEXCOORD_1": 32,
            "TEXCOORD_2": 33
          },
          "indices": 34,
          "material": 0,
          "mode": 4
        }
      ]
    },
    {
      "name": "tripo_node_24b8a081_tripo_mat_24b8a081_0",
      "primitives": [
        {
          "attributes": {
            "NORMAL": 36,
            "POSITION": 35,
            "TANGENT": 37,
            "TEXCOORD_0": 38,
            "TEXCOORD_1": 39,
            "TEXCOORD_2": 40
          },
          "indices": 41,
          "material": 0,
          "mode": 4
        }
      ]
    },
    {
      "name": "tripo_node_24b8a081_tripo_mat_24b8a081_0",
      "primitives": [
        {
          "attributes": {
            "NORMAL": 43,
            "POSITION": 42,
            "TANGENT": 44,
            "TEXCOORD_0": 45,
            "TEXCOORD_1": 46,
            "TEXCOORD_2": 47
          },
          "indices": 48,
          "material": 0,
          "mode": 4
        }
      ]
    },
    {
      "name": "tripo_node_24b8a081_tripo_mat_24b8a081_0",
      "primitives": [
        {
          "attributes": {
            "NORMAL": 50,
            "POSITION": 49,
            "TANGENT": 51,
            "TEXCOORD_0": 52,
            "TEXCOORD_1": 53,
            "TEXCOORD_2": 54
          },
          "indices": 55,
          "material": 0,
          "mode": 4
        }
      ]
    },
    {
      "name": "tripo_node_24b8a081_tripo_mat_24b8a081_0",
      "primitives": [
        {
          "attributes": {
            "NORMAL": 57,
            "POSITION": 56,
            "TANGENT": 58,
            "TEXCOORD_0": 59,
            "TEXCOORD_1": 60,
            "TEXCOORD_2": 61
          },
          "indices": 62,
          "material": 0,
          "mode": 4
        }
      ]
    },
    {
      "name": "tripo_node_24b8a081_tripo_mat_24b8a081_0",
      "primitives": [
        {
          "attributes": {
            "NORMAL": 64,
            "POSITION": 63,
            "TANGENT": 65,
            "TEXCOORD_0": 66,
            "TEXCOORD_1": 67,
            "TEXCOORD_2": 68
          },
          "indices": 69,
          "material": 0,
          "mode": 4
        }
      ]
    },
    {
      "name": "tripo_node_24b8a081_tripo_mat_24b8a081_0",
      "primitives": [
        {
          "attributes": {
            "NORMAL": 71,
            "POSITION": 70,
            "TANGENT": 72,
            "TEXCOORD_0": 73,
            "TEXCOORD_1": 74,
            "TEXCOORD_2": 75
          },
          "indices": 76,
          "material": 0,
          "mode": 4
        }
      ]
    },
    {
      "name": "tripo_node_24b8a081_tripo_mat_24b8a081_0",
      "primitives": [
        {
          "attributes": {
            "NORMAL": 78,
            "POSITION": 77,
            "TANGENT": 79,
            "TEXCOORD_0": 80,
            "TEXCOORD_1": 81,
            "TEXCOORD_2": 82
          },
          "indices": 83,
          "material": 0,
          "mode": 4
        }
      ]
    },
    {
      "name": "tripo_node_24b8a081_tripo_mat_24b8a081_0",
      "primitives": [
        {
          "attributes": {
            "NORMAL": 85,
            "POSITION": 84,
            "TANGENT": 86,
            "TEXCOORD_0": 87,
            "TEXCOORD_1": 88,
            "TEXCOORD_2": 89
          },
          "indices": 90,
          "material": 0,
          "mode": 4
        }
      ]
    },
    {
      "name": "tripo_node_24b8a081_tripo_mat_24b8a081_0",
      "primitives": [
        {
          "attributes": {
            "NORMAL": 92,
            "POSITION": 91,
            "TANGENT": 93,
            "TEXCOORD_0": 94,
            "TEXCOORD_1": 95,
            "TEXCOORD_2": 96
          },
          "indices": 97,
          "material": 0,
          "mode": 4
        }
      ]
    },
    {
      "name": "tripo_node_24b8a081_tripo_mat_24b8a081_0",
      "primitives": [
        {
          "attributes": {
            "NORMAL": 99,
            "POSITION": 98,
            "TANGENT": 100,
            "TEXCOORD_0": 101,
            "TEXCOORD_1": 102,
            "TEXCOORD_2": 103
          },
          "indices": 104,
          "material": 0,
          "mode": 4
        }
      ]
    },
    {
      "name": "tripo_node_24b8a081_tripo_mat_24b8a081_0",
      "primitives": [
        {
          "attributes": {
            "NORMAL": 106,
            "POSITION": 105,
            "TANGENT": 107,
            "TEXCOORD_0": 108,
            "TEXCOORD_1": 109,
            "TEXCOORD_2": 110
          },
          "indices": 111,
          "material": 0,
          "mode": 4
        }
      ]
    },
    {
      "name": "tripo_node_24b8a081_tripo_mat_24b8a081_0",
      "primitives": [
        {
          "attributes": {
            "NORMAL": 113,
            "POSITION": 112,
            "TANGENT": 114,
            "TEXCOORD_0": 115,
            "TEXCOORD_1": 116,
            "TEXCOORD_2": 117
          },
          "indices": 118,
          "material": 0,
          "mode": 4
        }
      ]
    },
    {
      "name": "tripo_node_24b8a081_tripo_mat_24b8a081_0",
      "primitives": [
        {
          "attributes": {
            "NORMAL": 120,
            "POSITION": 119,
            "TANGENT": 121,
            "TEXCOORD_0": 122,
            "TEXCOORD_1": 123,
            "TEXCOORD_2": 124
          },
          "indices": 125,
          "material": 0,
          "mode": 4
        }
      ]
    },
    {
      "name": "tripo_node_24b8a081_tripo_mat_24b8a081_0",
      "primitives": [
        {
          "attributes": {
            "NORMAL": 127,
            "POSITION": 126,
            "TANGENT": 128,
            "TEXCOORD_0": 129,
            "TEXCOORD_1": 130,
            "TEXCOORD_2": 131
          },
          "indices": 132,
          "material": 0,
          "mode": 4
        }
      ]
    },
    {
      "name": "tripo_node_24b8a081_tripo_mat_24b8a081_0",
      "primitives": [
        {
          "attributes": {
            "NORMAL": 134,
            "POSITION": 133,
            "TANGENT": 135,
            "TEXCOORD_0": 136,
            "TEXCOORD_1": 137,
            "TEXCOORD_2": 138
          },
          "indices": 139,
          "material": 0,
          "mode": 4
        }
      ]
    },
    {
      "name": "tripo_node_24b8a081_tripo_mat_24b8a081_0",
      "primitives": [
        {
          "attributes": {
            "NORMAL": 141,
            "POSITION": 140,
            "TANGENT": 142,
            "TEXCOORD_0": 143,
            "TEXCOORD_1": 144,
            "TEXCOORD_2": 145
          },
          "indices": 146,
          "material": 0,
          "mode": 4
        }
      ]
    },
    {
      "name": "tripo_node_24b8a081_tripo_mat_24b8a081_0",
      "primitives": [
        {
          "attributes": {
            "NORMAL": 148,
            "POSITION": 147,
            "TANGENT": 149,
            "TEXCOORD_0": 150,
            "TEXCOORD_1": 151,
            "TEXCOORD_2": 152
          },
          "indices": 153,
          "material": 0,
          "mode": 4
        }
      ]
    }
  ],
  "nodes": [
    {
      "children": [
        1
      ],
      "matrix": [
        1.0,
        0.0,
        0.0,
        0.0,
        0.0,
        2.220446049250313e-16,
        -1.0,
        0.0,
        0.0,
        1.0,
        2.220446049250313e-16,
        0.0,
        0.0,
        0.0,
        0.0,
        1.0
      ],
      "name": "Sketchfab_model"
    },
    {
      "children": [
        2
      ],
      "matrix": [
        1.0,
        0.0,
        0.0,
        0.0,
        0.0,
        0.0,
        1.0,
        0.0,
        0.0,
        -1.0,
        0.0,
        0.0,
        0.0,
        0.0,
        0.0,
        1.0
      ],
      "name": "tripo_convert_24b8a081-b751-478e-9e43-86bc93294733.fbx"
    },
    {
      "children": [
        3
      ],
      "name": "RootNode"
    },
    {
      "children": [
        4,
        5,
        6,
        7,
        8,
        9,
        10,
        11,
        12,
        13,
        14,
        15,
        16,
        17,
        18,
        19,
        20,
        21,
        22,
        23,
        24,
        25
      ],
      "matrix": [
        1.0,
        0.0,
        0.0,
        0.0,
        0.0,
        -4.371139006309477e-08,
        -0.999999999999999,
        0.0,
        0.0,
        0.999999999999999,
        -4.371139006309477e-08,
        0.0,
        6.1005353927612305e-05,
        0.0,
        -4.57763671875e-05,
        1.0
      ],
      "name": "tripo_node_24b8a081"
    },
    {
      "mesh": 0,
      "name": "tripo_node_24b8a081_tripo_mat_24b8a081_0"
    },
    {
      "mesh": 1,
      "name": "tripo_node_24b8a081_tripo_mat_24b8a081_0"
    },
    {
      "mesh": 2,
      "name": "tripo_node_24b8a081_tripo_mat_24b8a081_0"
    },
    {
      "mesh": 3,
      "name": "tripo_node_24b8a081_tripo_mat_24b8a081_0"
    },
    {
      "mesh": 4,
      "name": "tripo_node_24b8a081_tripo_mat_24b8a081_0"
    },
    {
      "mesh": 5,
      "name": "tripo_node_24b8a081_tripo_mat_24b8a081_0"
    },
    {
      "mesh": 6,
      "name": "tripo_node_24b8a081_tripo_mat_24b8a081_0"
    },
    {
      "mesh": 7,
      "name": "tripo_node_24b8a081_tripo_mat_24b8a081_0"
    },
    {
      "mesh": 8,
      "name": "tripo_node_24b8a081_tripo_mat_24b8a081_0"
    },
    {
      "mesh": 9,
      "name": "tripo_node_24b8a081_tripo_mat_24b8a081_0"
    },
    {
      "mesh": 10,
      "name": "tripo_node_24b8a081_tripo_mat_24b8a081_0"
    },
    {
      "mesh": 11,
      "name": "tripo_node_24b8a081_tripo_mat_24b8a081_0"
    },
    {
      "mesh": 12,
      "name": "tripo_node_24b8a081_tripo_mat_24b8a081_0"
    },
    {
      "mesh": 13,
      "name": "tripo_node_24b8a081_tripo_mat_24b8a081_0"
    },
    {
      "mesh": 14,
      "name": "tripo_node_24b8a081_tripo_mat_24b8a081_0"
    },
    {
      "mesh": 15,
      "name": "tripo_node_24b8a081_tripo_mat_24b8a081_0"
    },
    {
      "mesh": 16,
      "name": "tripo_node_24b8a081_tripo_mat_24b8a081_0"
    },
    {
      "mesh": 17,
      "name": "tripo_node_24b8a081_tripo_mat_24b8a081_0"
    },
    {
      "mesh": 18,
      "name": "tripo_node_24b8a081_tripo_mat_24b8a081_0"
    },
    {
      "mesh": 19,
      "name": "tripo_node_24b8a081_tripo_mat_24b8a081_0"
    },
    {
      "mesh": 20,
      "name": "tripo_node_24b8a081_tripo_mat_24b8a081_0"
    },
    {
      "mesh": 21,
      "name": "tripo_node_24b8a081_tripo_mat_24b8a081_0"
    }
  ],
  "samplers": [
    {
      "magFilter": 9729,
      "minFilter": 9987,
      "wrapS": 10497,
      "wrapT": 10497
    }
  ],
  "scene": 0,
  "scenes": [
    {
      "name": "Sketchfab_Scene",
      "nodes": [
        0
      ]
    }
  ],
  "textures": [
    {
      "sampler": 0,
      "source": 0
    },
    {
      "sampler": 0,
      "source": 1
    },
    {
      "sampler": 0,
      "source": 2
    }
  ]
}
